<?xml version="1.0" encoding="utf-8"?>
<svg viewBox="51.4515 48.4375 10.1339 10.1339" xmlns="http://www.w3.org/2000/svg">
  <defs>
    <clipPath clipPathUnits="userSpaceOnUse" id="clipPath933">
      <path d="M 0,0 H 1024 V 768 H 0 Z" id="path931"/>
    </clipPath>
  </defs>
  <g transform="matrix(1, 0, 0, 1, -10.851913613854556, -124.52312655036337)" id="layer1" style="fill:#0e7391;fill-opacity:1">
    <g id="g21386" style="fill:#0e7391;fill-opacity:1">
      <g id="g927" transform="matrix(0.22800387,0,0,-0.22800387,42.833303,193.29512)" style="fill:#0e7391;fill-opacity:1">
        <g id="g929" clip-path="url(#clipPath933)" style="fill:#0e7391;fill-opacity:1">
          <g id="g935" transform="translate(107.8004,79.8807)" style="fill:#0e7391;fill-opacity:1">
            <path d="M 0,0 C -0.047,0.024 -0.101,0.051 -0.125,0.064 -0.145,0.073 -0.203,0.065 -0.252,0.043 L -6.567,-3.036 C -6.611,-3.058 -6.611,-3.075 -6.56,-3.075 L 6.217,-3.08 c 0.051,0 0.059,0.018 0.014,0.039 z" style="fill:#0e7391;fill-opacity:1;fill-rule:nonzero;stroke:none" id="path937"/>
          </g>
          <g id="g939" transform="translate(107.6239,89.185)" style="fill:#0e7391;fill-opacity:1">
            <path d="m 0,0 c -12.247,0.005 -22.225,-9.962 -22.23,-22.215 -0.002,-12.251 9.965,-22.226 22.215,-22.231 12.253,-0.005 22.226,9.966 22.231,22.215 C 22.218,-9.977 12.257,-0.005 0,0 m 12.51,-35.135 c 0.002,-0.036 -0.027,-0.066 -0.064,-0.067 l -24.907,0.008 c -0.039,0 -0.068,0.031 -0.065,0.069 l -0.003,2.506 c 0,0.036 0.029,0.065 0.064,0.065 l 24.916,-0.009 c 0.029,0 0.061,-0.031 0.061,-0.065 z m -16.773,6.561 0.005,12.622 h 2.862 l -0.002,-12.626 2.789,-0.001 0.007,12.624 2.858,-0.002 -0.005,-12.625 2.852,-10e-4 0.005,12.626 2.855,-10e-4 -0.01,-12.626 h 1.264 l 0.002,-2.571 c -0.002,-0.037 -0.027,-0.064 -0.066,-0.064 l -22.318,0.008 c -0.032,0 -0.066,0.028 -0.069,0.066 l 0.003,2.569 h 1.265 l 0.005,12.625 2.846,-10e-4 v -12.621 z m 17.62,15.279 -0.793,-1.386 c -0.02,-0.043 -0.086,-0.08 -0.135,-0.08 l -24.843,0.009 c -0.051,0 -0.112,0.035 -0.137,0.078 l -0.791,1.386 c -0.022,0.046 -0.007,0.1 0.039,0.121 l 13.232,7.036 c 0.044,0.024 0.115,0.024 0.162,0 l 13.229,-7.042 c 0.047,-0.023 0.061,-0.08 0.037,-0.122" style="fill:#0e7391;fill-opacity:1;fill-rule:nonzero;stroke:none" id="path941"/>
          </g>
          <g id="g943" transform="translate(141.0098,58.7449)" style="fill:#0e7391;fill-opacity:1"/>
          <g id="g947" transform="translate(163.1296,56.2805)" style="fill:#0e7391;fill-opacity:1"/>
          <g id="g951" transform="translate(174.0624,58.7352)" style="fill:#0e7391;fill-opacity:1"/>
          <g id="g955" transform="translate(200.6974,67.365)" style="fill:#0e7391;fill-opacity:1"/>
          <g id="g959" transform="translate(211.5861,56.261)" style="fill:#0e7391;fill-opacity:1"/>
          <g id="g963" transform="translate(226.4609,58.7144)" style="fill:#0e7391;fill-opacity:1"/>
          <g id="g967" transform="translate(252.7607,56.2487)" style="fill:#0e7391;fill-opacity:1"/>
          <g id="g971" transform="translate(272.1506,67.3528)" style="fill:#0e7391;fill-opacity:1"/>
          <g id="g975" transform="translate(276.6365,58.6961)" style="fill:#0e7391;fill-opacity:1"/>
          <g id="g979" transform="translate(292.4735,56.2327)" style="fill:#0e7391;fill-opacity:1"/>
          <g id="g983" transform="translate(300.7446,58.6873)" style="fill:#0e7391;fill-opacity:1"/>
        </g>
      </g>
    </g>
  </g>
</svg>