<?xml version="1.0" encoding="utf-8"?>
<svg viewBox="0 0 273 43" xmlns="http://www.w3.org/2000/svg">
  <path
    d="M28.9 10s-.1 0-.1-.1h-.1l-5.8 2.8h11.7L28.9 10z"
    fill="white"
  />
  <path
    d="M28.8 1.5c-11.2 0-20.4 9.1-20.4 20.4 0 11.2 9.2 20.4 20.4 20.4s20.4-9.2 20.4-20.4c0-11.3-9.2-20.4-20.4-20.4m11.5 32.2c0 .1 0 .1 0 0l-22.9.1s-.1 0-.1-.1v-2.3s0-.1.1-.1h22.9s.1 0 .1.1v2.3zm-15.4-6V16.1h2.6v11.6h2.6V16.1h2.6v11.6h2.6V16.1h2.6v11.6h1.2v2.4s0 .1-.1.1H18.5s-.1 0-.1-.1v-2.4h1.2V16.1h2.6v11.6h2.7zm16.1-14-.7 1.3-.1.1H17.4s-.1 0-.1-.1l-.7-1.3v-.1l12.1-6.5h.1L41 13.6c.1 0 .1 0 0 .1M59.4 29.4c.2-.1.5-.1 1-.2.4-.1.8-.1 1.2-.1V15c-.4 0-.8 0-1.2-.1-.4-.1-.8-.1-1-.2v-1.9h7.9c.9 0 1.7.1 2.4.2.8.2 1.4.4 2 .8.6.4 1 .8 1.4 1.4.3.6.5 1.3.5 2.2 0 1.2-.3 2.1-.9 2.8-.6.7-1.4 1.2-2.4 1.4v.1c.6.1 1.1.3 1.6.5s1 .5 1.3.9c.4.4.7.8.9 1.3.2.5.3 1.1.3 1.8 0 .9-.2 1.7-.5 2.4-.4.7-.8 1.2-1.5 1.6-.6.4-1.4.7-2.2.9-.9.2-1.8.3-2.9.3h-7.9v-2zm5.3-8.8H67c1.2 0 2.1-.2 2.7-.7.6-.5.8-1.2.8-2.1 0-1.8-1.1-2.7-3.4-2.7h-2.3v5.5zm0 8.4h2.5c1.4 0 2.4-.2 3-.7.7-.5 1-1.3 1-2.3 0-1-.3-1.8-.9-2.3-.6-.6-1.6-.8-3-.8h-2.6V29zM79.7 31.7c-.6 0-1.1-.1-1.6-.3-.5-.2-.9-.4-1.3-.7-.4-.3-.6-.7-.8-1.2-.2-.5-.3-1-.3-1.6 0-.9.2-1.6.6-2.2.4-.6 1-1.1 1.6-1.4.7-.4 1.4-.6 2.3-.8.9-.2 1.7-.2 2.6-.2h.5v-1.1c0-.8-.2-1.4-.6-1.8-.4-.4-1-.5-1.9-.5-.7 0-1.3.1-1.9.4-.6.3-1.1.6-1.6 1L76 19.5c.6-.5 1.3-1 2.2-1.4.9-.4 1.8-.6 3-.6 1.7 0 3 .4 3.8 1.1.8.7 1.3 2 1.3 3.6V29.1c.4 0 .7.1 1.1.1h.9v2c-.4 0-1 .1-1.8.1s-1.7.1-2.7.1c-.1-.2-.1-.4-.1-.7 0-.3-.1-.6-.1-1h-.1c-.4.5-.9.9-1.5 1.3-.6.5-1.4.7-2.3.7m.8-2.3c.7 0 1.3-.1 1.8-.4.5-.3.9-.6 1.2-1.1v-2.8H83c-1.3 0-2.3.2-3.1.6-.8.4-1.2 1.1-1.2 2 0 .6.2 1 .6 1.3.4.3.8.4 1.2.4M89.8 29.4c.2-.1.5-.1.9-.2s.8-.1 1.2-.1V20c-.4 0-.8-.1-1.2-.1h-.9V18c.4-.1 1.1-.1 2-.2.9 0 1.9-.1 3.1-.1l-.1 2.1h.1c.5-.7 1.1-1.2 1.8-1.6.7-.4 1.5-.6 2.5-.6.7 0 1.3.1 1.9.3.5.2.9.5 1.2.9.3.4.5.8.7 1.4.1.5.2 1.1.2 1.7v7.3c.4 0 .8 0 1.2.1.4.1.7.1.9.2v1.9h-7v-1.9c.2 0 .5-.1.8-.1.4-.1.8-.1 1.1-.1v-6.8c0-.8-.2-1.3-.5-1.8-.3-.4-.9-.6-1.6-.6-.7 0-1.3.2-1.9.6-.5.4-1 .9-1.4 1.4v7.2c.4 0 .7.1 1.1.1.4.1.7.1.8.1v1.9h-7v-2zM114.2 21.5c0-.2 0-.5-.1-.7v-.7c-.4-.2-1-.3-1.6-.3-.6 0-1.2.1-1.6.4-.5.3-.8.6-1.2 1-.3.4-.5.9-.7 1.5-.2.6-.2 1.2-.2 1.9s.1 1.3.3 1.9c.2.6.4 1.1.7 1.5.3.4.7.8 1.2 1 .5.3 1 .4 1.7.4.4 0 .8 0 1.1-.1l.9-.3c.3-.1.5-.2.7-.3.2-.1.3-.2.5-.3l1 2c-.1.1-.4.2-.6.4-.3.1-.6.3-1 .4-.4.1-.8.3-1.3.3-.5.1-1 .1-1.7.1-1.1 0-2-.2-2.8-.5-.8-.3-1.5-.8-2.1-1.4-.6-.6-1-1.3-1.3-2.2-.3-.8-.4-1.7-.4-2.7 0-1.2.2-2.2.5-3.1.3-.9.8-1.7 1.4-2.3.6-.6 1.3-1.1 2.2-1.4.8-.3 1.7-.5 2.7-.5 1 0 1.8.1 2.5.3.7.2 1.2.5 1.5.7v2.9h-2.3zM124.2 31.7c-1.1 0-2.1-.2-3-.6-.8-.4-1.5-.9-2-1.6-.5-.6-.9-1.4-1.1-2.2-.2-.8-.4-1.7-.4-2.6 0-.8.1-1.7.4-2.5.2-.9.6-1.6 1.2-2.3.5-.7 1.2-1.2 2-1.7.8-.4 1.8-.7 2.9-.7 1.1 0 2.1.2 3 .6.8.4 1.5.9 2.1 1.6.5.7.9 1.4 1.2 2.2.3.8.4 1.7.4 2.6 0 .8-.1 1.7-.4 2.5-.3.9-.7 1.6-1.2 2.3-.5.7-1.2 1.3-2.1 1.7-.9.5-1.9.7-3 .7m0-2.3c.6 0 1.1-.1 1.6-.4.4-.2.8-.6 1.1-1 .3-.4.5-.9.6-1.5.1-.6.2-1.2.2-1.9s-.1-1.3-.2-1.9c-.1-.6-.3-1.1-.6-1.5-.3-.4-.6-.8-1.1-1-.4-.3-1-.4-1.6-.4-.6 0-1.1.1-1.5.4-.4.3-.8.6-1 1-.3.4-.5.9-.6 1.5-.1.6-.2 1.2-.2 1.9s.1 1.3.2 1.9c.1.6.3 1.1.6 1.6.3.4.6.8 1 1.1.4.1.9.2 1.5.2M137.8 29.4c.2-.1.5-.1 1-.2.4-.1.8-.1 1.2-.1V15c-.4 0-.8 0-1.2-.1-.4-.1-.8-.1-1-.2v-1.9h5.2l7.9 11 1.2 1.8c.4.6.6.9.7 1.1h.1c0-.2 0-.5-.1-1V14.9c-.4 0-.8 0-1.2-.1-.4-.1-.7-.1-.9-.2v-1.9h7v1.9c-.2.1-.5.1-.9.2s-.8.1-1.2.1v16.4h-2.7l-8.3-11.7c-.2-.3-.4-.6-.6-.8-.2-.3-.4-.6-.5-.8-.1-.2-.3-.5-.4-.7-.1-.2-.2-.3-.2-.4h-.1c0 .2.1.5.1 1v11.3c.4 0 .8.1 1.2.1.4 0 .8.1 1 .2v1.9H138v-2zM162 31.7c-.6 0-1.1-.1-1.6-.3-.5-.2-.9-.4-1.3-.7-.4-.3-.6-.7-.8-1.2-.2-.5-.3-1-.3-1.6 0-.9.2-1.6.6-2.2.4-.6 1-1.1 1.6-1.4.7-.4 1.4-.6 2.3-.8.9-.2 1.7-.2 2.6-.2h.5v-1.1c0-.8-.2-1.4-.6-1.8-.4-.4-1-.5-1.9-.5-.7 0-1.3.1-1.9.4-.6.3-1.1.6-1.6 1l-1.3-1.8c.6-.5 1.3-1 2.2-1.4.9-.4 1.8-.6 3-.6 1.7 0 3 .4 3.8 1.1.8.7 1.3 2 1.3 3.6v7c.4 0 .7.1 1.1.1h.9v2c-.4 0-1 .1-1.8.1s-1.7.1-2.7.1c-.1-.2-.1-.4-.1-.7 0-.3-.1-.6-.1-1h-.1c-.4.5-.9.9-1.5 1.3-.7.4-1.4.6-2.3.6m.7-2.3c.7 0 1.3-.1 1.8-.4.5-.3.9-.6 1.2-1.1v-2.8h-.5c-1.3 0-2.3.2-3.1.6-.8.4-1.2 1.1-1.2 2 0 .6.2 1.1.6 1.3.4.3.8.4 1.2.4M179.8 21.5c0-.2 0-.5-.1-.7v-.7c-.4-.2-1-.3-1.6-.3-.6 0-1.1.1-1.6.4-.5.3-.8.6-1.2 1-.3.4-.5.9-.7 1.5-.2.6-.2 1.2-.2 1.9s.1 1.3.3 1.9c.2.6.4 1.1.7 1.5.3.4.7.8 1.2 1 .5.2 1 .4 1.7.4.4 0 .8 0 1.1-.1l.9-.3c.3-.1.5-.2.7-.3.2-.1.3-.2.5-.3l1 2c-.1.1-.4.2-.6.4-.3.1-.6.3-1 .4-.4.1-.8.3-1.3.3-.5.1-1 .1-1.7.1-1.1 0-2-.2-2.8-.5-.8-.3-1.5-.8-2.1-1.4-.6-.6-1-1.3-1.3-2.2-.3-.8-.4-1.7-.4-2.7 0-1.2.2-2.2.5-3.1.3-.9.8-1.7 1.4-2.3.6-.6 1.3-1.1 2.2-1.4.8-.3 1.7-.5 2.7-.5 1 0 1.8.1 2.5.3.7.2 1.2.5 1.5.7v2.9h-2.3zM183.9 29.4c.2-.1.5-.1.9-.2s.8-.1 1.2-.1V20c-.4 0-.8-.1-1.2-.1h-.9V18c.4-.1 1.1-.1 2-.2.9 0 2-.1 3.1-.1l-.1 2.2v9.3c.4 0 .8 0 1.1.1.4.1.7.1.9.2v1.9h-7.1v-2zm3.5-13.4c-.5 0-.9-.2-1.2-.5-.3-.3-.5-.7-.5-1.2s.2-.9.5-1.2c.3-.3.7-.5 1.2-.5s.9.2 1.2.5c.3.3.5.7.5 1.2s-.2.9-.5 1.2c-.2.4-.7.5-1.2.5M198.4 31.7c-1.1 0-2.1-.2-3-.6-.8-.4-1.5-.9-2-1.6-.5-.6-.9-1.4-1.1-2.2-.2-.8-.4-1.7-.4-2.6 0-.8.1-1.7.4-2.5.3-.9.6-1.6 1.2-2.3.5-.7 1.2-1.2 2-1.7.8-.4 1.8-.7 2.9-.7 1.1 0 2.1.2 3 .6.8.4 1.5.9 2.1 1.6.5.6.9 1.4 1.2 2.2.3.8.4 1.7.4 2.6 0 .8-.1 1.6-.4 2.5-.3.9-.7 1.6-1.2 2.3-.5.7-1.2 1.3-2.1 1.7-.8.4-1.8.7-3 .7m.1-2.3c.6 0 1.1-.1 1.6-.4.4-.3.8-.6 1.1-1 .3-.4.5-.9.6-1.5.1-.6.2-1.2.2-1.9s-.1-1.3-.2-1.9c-.1-.6-.3-1.1-.6-1.5-.3-.4-.6-.8-1.1-1-.4-.3-1-.4-1.6-.4-.6 0-1.1.1-1.5.4-.4.3-.8.6-1 1-.3.4-.5.9-.6 1.5-.1.6-.2 1.2-.2 1.9s.1 1.3.2 1.9c.1.6.3 1.1.6 1.6.3.4.6.8 1 1.1.4.1.9.2 1.5.2m.9-16.7h4l-3.5 3.1h-2.6l2.1-3.1zM206 29.4c.2-.1.5-.1.9-.2s.8-.1 1.2-.1V20c-.4 0-.8-.1-1.2-.1h-.9V18c.4-.1 1.1-.1 2-.1.9 0 1.9-.1 3.1-.1l-.1 2.1h.1c.5-.7 1.1-1.2 1.8-1.6.7-.4 1.5-.6 2.5-.6.7 0 1.3.1 1.9.3.5.2.9.5 1.2.9.3.4.5.8.7 1.4.1.5.2 1.1.2 1.7v7.3c.4 0 .8 0 1.2.1.4.1.7.1.9.2v1.9h-7v-1.9c.2 0 .5-.1.8-.1.4-.1.8-.1 1.1-.1v-6.8c0-.8-.2-1.3-.5-1.8-.3-.4-.9-.6-1.6-.6-.7 0-1.3.2-1.9.6-.5.4-1 .9-1.4 1.4v7.2c.4 0 .7.1 1.1.1.4.1.7.1.8.1v1.9h-7v-2.1z"
    fill="white"
  />
</svg>